<svg width="179" height="196" viewBox="0 0 179 196" fill="none" xmlns="http://www.w3.org/2000/svg">
<path d="M115.859 38.72C114.616 33.7475 109.912 30.725 105.386 32.09L75.2113 40.9625L35.8062 0.79248L24.89 4.00998L48.4975 48.7625L20.1863 57.05L9.00375 47.495L0.75 49.9325L15.4825 78.0125L109.735 50.3225C114.35 48.86 117.013 43.6925 115.859 38.72ZM169.375 78.5L160.5 98H116.125L107.25 78.5L116.125 68.75H133.875V49.25H142.75V68.75H160.5L169.375 78.5ZM178.25 176V195.5H0.75V176H116.125V107.75H160.5V176H178.25Z" fill="#001EFF"/>
</svg>
